<svg width="44" height="45" viewBox="0 0 44 45" fill="none" xmlns="http://www.w3.org/2000/svg">
<path d="M7.33341 33.5198H17.4167V35.8114C17.4167 38.5959 15.1595 40.8531 12.3751 40.8531C9.59065 40.8531 7.33341 38.5959 7.33341 35.8114V33.5198ZM14.774 26.1864L14.8549 25.9437C16.2613 22.0838 16.5001 21.3673 16.5001 20.6864C16.5001 19.3123 16.1288 17.6751 15.5327 16.5189C15.0891 15.6585 14.7767 15.4076 14.6667 15.4076C12.3217 15.4076 10.0834 17.9079 10.0834 20.6864C10.0834 22.4442 10.2212 23.9373 10.4991 25.7435C10.5102 25.8157 10.5364 25.9798 10.5695 26.1864H14.774ZM14.6667 11.7409C18.3334 11.7409 20.1667 17.0198 20.1667 20.6864C20.1667 22.5198 19.2501 24.3531 18.3334 27.1031L17.4167 29.8531H7.33341C7.33341 28.0198 6.41675 25.2698 6.41675 20.6864C6.41675 16.1031 10.0794 11.7409 14.6667 11.7409ZM36.7658 26.3666L36.3677 28.6237C35.8843 31.3658 33.2692 33.1967 30.5271 32.7131C27.785 32.2296 25.954 29.6148 26.4377 26.8726L26.8355 24.6158L36.7658 26.3666ZM34.8417 18.581C35.1442 17.6648 35.3933 16.9418 35.3964 16.9314C35.7664 15.7249 36.0581 14.5427 36.286 13.2508C36.7685 10.5145 34.9984 7.66349 32.689 7.25627C32.5806 7.23716 32.2293 7.43001 31.643 8.2003C30.8553 9.23542 30.2054 10.7834 29.9668 12.1366C29.86 12.7419 29.8768 12.8777 30.4624 16.2854C30.5427 16.7533 30.6112 17.1759 30.6739 17.5995L30.7115 17.8528L34.8417 18.581ZM33.3257 3.6453C37.8432 4.44188 40.6927 9.37382 39.8969 13.8875C39.101 18.4012 37.7207 20.9502 37.4025 22.7557L27.4722 21.0049L27.0471 18.1374C26.6217 15.27 26.0374 13.3054 26.3557 11.4999C26.9924 7.88891 29.7146 3.00858 33.3257 3.6453Z" fill="white"/>
</svg>
