<svg width="64" height="64" viewBox="0 0 64 64" fill="none" xmlns="http://www.w3.org/2000/svg">
<path d="M56.5285 19.7031C56.2373 19.5532 55.8933 19.5462 55.5966 19.6852L51.5427 21.5701L44.0452 23.2317L37.8325 23.7747L34.8479 23.9402L35.7158 22.3215L35.7159 22.3218C36.3089 22.4348 36.9171 22.443 37.513 22.3467C37.9074 22.2797 38.2793 22.1165 38.5959 21.8715C39.0683 21.4896 39.1701 20.5662 39.1878 20.036L39.8482 19.7296L39.8478 19.7296C39.9513 19.6815 40.0317 19.5944 40.0709 19.487C40.1101 19.3795 40.1049 19.2611 40.0572 19.1575L39.5393 18.0417C39.484 17.7403 39.2177 16.3187 38.982 15.5257L38.9816 15.5258C38.6942 14.6719 38.0499 13.9853 37.216 13.645C36.1177 13.2452 34.9077 13.2859 33.8388 13.758C33.403 13.2357 32.7381 12.9615 32.0612 13.0249C31.3842 13.0883 30.7816 13.4816 30.4511 14.0754C30.1203 14.6697 30.1033 15.3889 30.4062 15.9978C30.6546 16.5417 31.1116 16.9627 31.6743 17.1661C31.6564 17.4108 31.6669 17.6567 31.7058 17.899C31.8384 18.8078 32.1417 19.6834 32.5997 20.4794L32.1323 21.0276L31.3532 20.4426C31.3134 20.3844 31.2712 20.328 31.2255 20.2737L31.2252 20.2742C30.5285 19.4399 29.5948 18.8372 28.5482 18.5449L22.6472 16.8914L19.5125 15.3172L14.2972 12.956L14.2823 12.919L14.2819 12.919C14.1988 12.7134 14.1855 12.4857 14.245 12.2718L14.5641 11.1347L14.5642 11.1351C14.6238 10.9239 14.6448 10.7037 14.6274 10.485L14.5517 9.53662C14.5124 9.04373 14.1481 8.63847 13.6624 8.54636C13.1768 8.45463 12.6894 8.69925 12.473 9.14348L11.5717 10.9931L11.3318 10.856L11.3319 10.8564C11.0351 10.6876 10.6586 10.7781 10.4711 11.0632L9.34016 12.7902C9.14862 13.0808 9.22222 13.4712 9.50668 13.6713L10.0724 14.0715L9.32924 15.5973C7.59057 18.331 3.56927 24.6804 3.43656 25.1527C3.35553 25.4416 3.41143 25.9008 4.43876 27.1159C4.68634 27.4093 4.9946 27.6456 5.342 27.8086L16.3294 32.9787C16.6836 34.0211 18.4742 39.221 19.6367 41.0323C20.8202 42.8756 21.3723 47.9031 21.3781 47.9556L21.4468 48.5587L21.4469 48.5591C21.6165 50.0544 22.0363 51.5106 22.6883 52.8668L22.8354 53.1753C23.3047 54.1524 23.6463 55.1862 23.8513 56.2511L24.3821 59.008C24.459 59.4075 24.6913 59.7598 25.0281 59.9879C25.365 60.216 25.7784 60.3008 26.1779 60.2239L32.3478 59.036C32.7403 58.9573 33.0137 58.5996 32.9862 58.2004C32.959 57.8007 32.6391 57.4836 32.2397 57.4595L29.6521 57.3597C29.1507 57.3408 28.6646 57.1814 28.2494 56.8999L28.0729 56.7804C27.4668 56.368 27.0543 55.7269 26.9306 55.0048L25.5312 46.7523L23.5918 36.6798C23.4579 35.9902 23.5831 35.2757 23.9431 34.6726L26.3015 34.2706L26.3744 34.2566C28.0026 33.9431 30.6425 32.2902 30.9549 32.0926C32.6084 31.3407 34.2606 30.4321 34.8587 28.4557C34.8713 28.4564 34.8838 28.4583 34.8968 28.4585L34.8967 28.4582C36.3751 28.4974 37.8492 28.2868 39.2574 27.8355L42.3601 26.8434L47.9562 25.108L50.9941 24.0924L52.6711 23.9817L52.6707 23.9814C52.7558 23.976 52.8368 23.9455 52.9044 23.8938L54.7812 22.4555L56.5136 21.6051L56.5139 21.6046C56.8749 21.4274 57.1048 21.0617 57.108 20.6593C57.1113 20.2573 56.887 19.8877 56.529 19.7044L56.5285 19.7031ZM38.5779 19.369C38.4233 19.4407 38.3258 19.5973 38.3293 19.7678C38.3392 20.3826 38.206 21.0799 38.0545 21.2022C37.3298 21.7889 35.832 21.484 35.3908 21.3767L35.3904 21.3768C34.9086 21.2338 34.4497 21.0226 34.0271 20.7499C33.601 20.4588 33.2718 20.0464 33.0815 19.5665C34.7807 17.4662 37.3978 16.763 38.3579 16.5687C38.5392 17.362 38.698 18.2376 38.7003 18.2493C38.7069 18.2856 38.7179 18.3207 38.7334 18.3542L39.0933 19.1292L38.5779 19.369ZM36.918 14.4533L36.9183 14.4533C37.4835 14.6938 37.9253 15.1558 38.1406 15.7311C37.0965 15.9419 34.5907 16.6339 32.7497 18.6346C32.6751 18.3611 32.6093 18.0679 32.5558 17.7536C32.3687 16.6559 33.0454 15.2016 34.0041 14.6407L34.0037 14.6404C34.904 14.1648 35.9646 14.0964 36.9183 14.4532L36.918 14.4533ZM31.1816 15.6236C30.8886 15.0127 31.1446 14.2801 31.7543 13.9853C32.2125 13.7777 32.7512 13.8768 33.105 14.234C32.4939 14.7902 32.0512 15.5071 31.8272 16.3025C31.5417 16.1554 31.3143 15.9161 31.1819 15.6232L31.1816 15.6236ZM33.151 21.1603L33.151 21.1599C33.284 21.2854 33.4306 21.3958 33.5873 21.4898C33.9868 21.7383 34.4102 21.9465 34.8512 22.1115L34.2711 23.1927C34.1998 23.0643 34.126 22.9372 34.0461 22.8131C33.7431 22.3499 33.3599 21.944 32.9144 21.615L32.8222 21.5451L33.151 21.1603ZM22.2977 17.6799L22.2976 17.6796C22.3223 17.6916 22.3481 17.7016 22.3745 17.7086L28.3147 19.3746C29.1945 19.6199 29.9788 20.1263 30.5641 20.8273C30.8301 21.145 30.9284 21.5705 30.8288 21.9723C30.7292 22.3745 30.4435 22.7048 30.0601 22.8612L29.8365 22.9528C29.4594 23.1053 29.0331 23.0735 28.6831 22.8667L27.1818 21.9744L21.2875 18.7203L14.647 15.1657C14.7793 14.8258 14.8079 14.4538 14.7291 14.0973L19.1415 16.0939L22.2977 17.6799ZM23.4194 29.4015L23.4197 29.4011C23.7999 30.536 24.2983 31.6277 24.9067 32.6583L25.4305 33.5443L23.8526 33.8137C23.4687 33.3311 22.4675 31.9791 22.2255 30.7224C22.0633 29.7884 22.0534 28.834 22.1961 27.8969C22.3909 27.8715 22.6294 27.8389 22.8842 27.8016L23.4194 29.4015ZM21.8918 27.0672L20.6527 26.5132L20.6522 26.5129C19.897 26.1759 19.0688 26.0358 18.2446 26.1056L16.1868 26.2825C15.6529 26.3285 15.1156 26.2671 14.6064 26.1016L9.06671 24.3088C9.43599 23.8391 9.77131 23.3434 10.0707 22.826C10.9116 21.3847 11.7079 18.6422 12.1074 17.1355L12.1075 17.1359C12.2179 16.7227 12.579 16.4264 13.0056 16.3983C13.4412 16.3708 13.8532 16.1897 14.1676 15.8868L20.8761 19.4771L26.7536 22.7235L27.0848 22.9202L25.7157 25.4073C25.4312 25.9453 24.9791 26.3754 24.428 26.633C24.2171 26.7293 22.9728 26.9297 21.8918 27.0673L21.8918 27.0672ZM11.0809 11.7045L11.5736 11.9856L11.4998 13.1582L10.975 13.6563L10.1741 13.088L11.0809 11.7045ZM10.0684 16.0398C10.0771 16.026 10.0854 16.0119 10.0923 15.9972L10.7999 14.5469C10.9028 14.5807 11.0127 14.5881 11.119 14.5688C11.2402 14.5455 11.3521 14.4879 11.4414 14.403L12.1546 13.7237C12.272 13.6114 12.3433 13.4591 12.3532 13.297L12.4405 11.9061L12.4409 11.906C12.4501 11.746 12.3998 11.5889 12.2998 11.4637L13.2462 9.52088L13.2462 9.52126C13.2792 9.4546 13.3413 9.40701 13.4142 9.39298C13.4799 9.38033 13.5476 9.39627 13.6008 9.43693C13.654 9.47721 13.6878 9.53846 13.6928 9.60524L13.7683 10.5528C13.7776 10.6701 13.7663 10.7882 13.7344 10.9016L13.4151 12.0377C13.3042 12.4357 13.3286 12.8594 13.4842 13.2426L13.8399 14.1139C13.9677 14.4234 13.931 14.7762 13.7431 15.0532L13.709 15.1036C13.537 15.3592 13.2559 15.5206 12.9487 15.5398C12.5604 15.5648 12.1899 15.711 11.8893 15.958C11.5887 16.205 11.3736 16.5401 11.2742 16.9164C10.8861 18.3808 10.1162 21.0392 9.32632 22.3931C9.22851 22.5604 9.13284 22.7143 9.03827 22.8617L9.03865 22.8617C8.04972 22.5172 6.99225 22.4184 5.95695 22.5739C7.19016 20.5852 8.84491 17.9629 10.0684 16.04L10.0684 16.0398ZM27.5906 57.4932L27.7671 57.6127C28.3153 57.9845 28.9573 58.1953 29.6194 58.2209L31.6273 58.2972L26.0151 59.3778C25.8398 59.4111 25.6587 59.3736 25.5111 59.2743C25.3631 59.1748 25.2613 59.0201 25.2279 58.8448L24.6971 56.088C24.4782 54.951 24.1137 53.8468 23.6124 52.803L23.4653 52.4945C22.8551 51.225 22.4626 49.8618 22.3035 48.4619L22.239 47.8991L24.7693 47.4119L26.0814 55.1482C26.2455 56.1022 26.7899 56.9486 27.5906 57.493L27.5906 57.4932ZM22.746 36.8425L24.6178 46.5641L22.1316 47.0427C21.9171 45.4832 21.3591 42.1191 20.3616 40.5671C19.1529 38.682 17.1077 32.5917 17.0874 32.5307C17.0502 32.4192 16.9692 32.3279 16.8632 32.2774L5.70855 27.0291C5.4727 26.9187 5.26373 26.7588 5.09617 26.5596C4.51962 25.8776 4.31631 25.497 4.27934 25.3619C4.38581 25.1441 4.78298 24.4794 5.3425 23.5678L5.74077 23.4825L5.74046 23.483C6.66383 23.2856 7.62181 23.3251 8.52572 23.5983C8.19259 24.0728 7.79054 24.4945 7.33267 24.85L7.56786 25.2112L7.80055 25.5737C8.03423 25.4085 8.25067 25.2207 8.44673 25.0126L14.3402 26.9203C14.9589 27.1215 15.6115 27.1959 16.2595 27.1401L18.3173 26.9632C18.9961 26.9053 19.6787 27.021 20.3007 27.2983L21.3436 27.7648C21.185 28.7998 21.1969 29.854 21.3793 30.8851C21.6533 32.3079 22.7025 33.7506 23.1501 34.316C22.7202 35.0833 22.5766 35.9787 22.7456 36.8422L22.746 36.8425ZM30.5713 31.3212L30.5713 31.3208C30.5525 31.3291 30.5344 31.3389 30.5174 31.3504C30.4902 31.3677 27.8806 33.0234 26.3359 33.3835L25.6482 32.2197L25.6481 32.2193C25.0705 31.2411 24.5972 30.2049 24.2363 29.1273L23.7467 27.6646C23.8353 27.6487 23.9224 27.6332 24.0058 27.6171L24.0062 27.617C24.2737 27.5745 24.5366 27.5063 24.7908 27.4131C25.5105 27.0771 26.1011 26.5162 26.4736 25.8148L27.8253 23.36L28.2428 23.6086C28.6992 23.8778 29.2381 23.9715 29.7584 23.8713C29.8966 23.8447 30.0318 23.8045 30.1621 23.7513L30.3857 23.6596C30.7601 23.5057 31.084 23.2495 31.3202 22.9205C31.5564 22.5915 31.6958 22.2029 31.7226 21.7987L32.3968 22.3048C32.7604 22.572 33.0734 22.9021 33.3207 23.2798C34.2323 24.7012 34.5063 26.4396 34.0763 28.0723C33.6157 29.8131 32.1554 30.6022 30.5712 31.3208L30.5713 31.3212ZM56.1336 20.8295L54.363 21.699L54.363 21.6987C54.3376 21.7114 54.3134 21.7262 54.2909 21.7435L52.4836 23.1284L50.8812 23.2345L50.8809 23.2346C50.8441 23.2365 50.8078 23.2435 50.7729 23.2553L47.6915 24.2872L42.1006 26.0216L38.9945 27.0143C37.7211 27.4212 36.3899 27.6184 35.0537 27.5976C35.1987 26.6647 35.1508 25.7118 34.9125 24.7979L37.8929 24.6325L44.1472 24.0862C44.1662 24.0849 44.1848 24.0821 44.2032 24.0778L51.7748 22.4007C51.8052 22.394 51.8347 22.384 51.863 22.3708L55.9597 20.4663L55.9596 20.4659C56.0157 20.4399 56.0809 20.441 56.1361 20.4692C56.1912 20.4973 56.2307 20.5496 56.242 20.6105C56.2596 20.6999 56.2151 20.79 56.1336 20.8303L56.1336 20.8295Z" fill="white"/>
</svg>
