<svg width="62" height="46" viewBox="0 0 62 46" fill="none" xmlns="http://www.w3.org/2000/svg">
<path d="M57.625 4.08708H56.601C56.5996 3.00087 56.168 1.95988 55.4 1.1919C54.6319 0.42393 53.591 -0.00768984 52.5048 -0.00909424H51.4807C50.3945 -0.00772272 49.3535 0.423836 48.5856 1.1919C47.8176 1.95997 47.386 3.00089 47.3846 4.08708V11.2554H42.8545C42.498 10.4544 41.942 9.75864 41.2403 9.2334V5.62315C41.2389 4.6727 40.8613 3.76208 40.1893 3.08995C39.5173 2.41792 38.6066 2.0403 37.6561 2.03893C37.0531 2.04305 36.4611 2.20122 35.9368 2.49838C35.635 1.52326 34.9292 0.725093 33.9988 0.30541C33.0685 -0.113804 32.0033 -0.113804 31.073 0.30541C30.1426 0.725081 29.4368 1.52326 29.135 2.49838C28.6106 2.20122 28.0186 2.04305 27.4157 2.03893C26.6559 2.04168 25.917 2.28626 25.3054 2.73702C24.6942 3.18778 24.2421 3.8214 24.0149 4.54647C23.4905 4.24931 22.8985 4.09114 22.2956 4.08702C21.3451 4.08839 20.4345 4.46601 19.7624 5.13804C19.0903 5.81007 18.7127 6.72069 18.7113 7.67123V11.2554H14.6152V4.08708C14.6138 3.00087 14.1822 1.95988 13.4142 1.1919C12.6461 0.42393 11.6052 -0.00768984 10.519 -0.00909424H9.49496C8.40874 -0.00772272 7.36775 0.423836 6.59978 1.1919C5.83181 1.95997 5.40019 3.00089 5.39878 4.08708H4.37474C3.28853 4.08845 2.24754 4.52001 1.47956 5.28808C0.711589 6.05615 0.279969 7.09707 0.278564 8.18325V22.5199C0.279479 23.6061 0.711495 24.6471 1.47956 25.415C2.24763 26.183 3.28855 26.6151 4.37474 26.616H5.39878C5.3997 27.7022 5.83171 28.7432 6.59978 29.5112C7.36785 30.2792 8.40877 30.7113 9.49496 30.7122H10.519C11.6052 30.7113 12.6462 30.2793 13.4142 29.5112C14.1821 28.7431 14.6142 27.7022 14.6152 26.616V19.4477H18.7113V21.4958C18.7113 26.7271 20.8266 29.279 21.7835 30.1673V44.0252C21.7835 44.5908 22.242 45.0493 22.8075 45.0493C23.373 45.0493 23.8316 44.5908 23.8316 44.0252V29.6886C23.8279 29.3517 23.662 29.0367 23.3854 28.8438C23.2784 28.7674 20.7594 26.9384 20.7594 21.4963V19.4482H32.6816C31.5035 20.886 30.9037 22.7119 31.0002 24.5684C31.0002 25.1339 31.4587 25.5925 32.0242 25.5925C32.5897 25.5925 33.0482 25.1339 33.0482 24.5684C33.0482 19.6444 36.7316 19.4537 37.1444 19.4482C37.416 19.4482 37.6766 19.3403 37.8686 19.1483C38.0606 18.9563 38.1685 18.6957 38.1685 18.4242V14.328C38.1685 14.0565 38.0606 13.7959 37.8686 13.6039C37.6766 13.4119 37.416 13.304 37.1444 13.304H34.0723C33.2576 13.303 32.4768 12.9789 31.9007 12.4034C31.3252 11.8273 31.001 11.0465 31.0001 10.2318H38.1684C38.9831 10.2327 39.7639 10.5568 40.34 11.1324C40.9156 11.7084 41.2397 12.4893 41.2406 13.304V21.4963C41.2406 26.9384 38.7217 28.7675 38.6243 28.8365C38.3395 29.0267 38.1685 29.3463 38.1685 29.6887V44.0253C38.1685 44.5908 38.6271 45.0493 39.1926 45.0493C39.7581 45.0493 40.2166 44.5908 40.2166 44.0253V30.1674C41.1735 29.2795 43.2887 26.7271 43.2887 21.4959V19.4478H47.3849V26.6161C47.3858 27.7023 47.8178 28.7433 48.5859 29.5113C49.354 30.2792 50.3949 30.7113 51.4811 30.7123H52.5051C53.5913 30.7113 54.6323 30.2793 55.4003 29.5113C56.1683 28.7432 56.6004 27.7023 56.6013 26.6161H57.6254C58.7116 26.6152 59.7526 26.1832 60.5205 25.4151C61.2885 24.647 61.7206 23.6061 61.7215 22.5199V8.1833C61.7202 7.09709 61.2886 6.0561 60.5205 5.28813C59.7525 4.52015 58.7115 4.08853 57.6254 4.08713L57.625 4.08708ZM5.39878 24.568H4.37474C3.83163 24.567 3.31138 24.3512 2.92738 23.9672C2.54339 23.5832 2.32759 23.063 2.32667 22.5199V8.18328C2.32713 7.64017 2.54337 7.11992 2.92738 6.73592C3.3114 6.35192 3.83166 6.13567 4.37474 6.13521H5.39878V24.568ZM12.5671 26.616C12.5662 27.1591 12.3504 27.6794 11.9664 28.0634C11.5824 28.4474 11.0621 28.6632 10.519 28.6641H9.49498C8.95187 28.6632 8.43162 28.4474 8.04762 28.0634C7.66363 27.6794 7.44783 27.1591 7.44692 26.616V4.08708C7.44737 3.54397 7.66361 3.02373 8.04762 2.63973C8.43163 2.25573 8.9519 2.03947 9.49498 2.03902H10.519C11.0621 2.03947 11.5824 2.25572 11.9664 2.63973C12.3504 3.02374 12.5666 3.544 12.5671 4.08708V26.616ZM25.8797 5.62256C25.8797 4.77407 26.5672 4.08649 27.4157 4.08649C28.2642 4.08649 28.9518 4.77407 28.9518 5.62256V11.7668C28.9518 12.6153 28.2642 13.3029 27.4157 13.3029C26.5672 13.3029 25.8797 12.6153 25.8797 11.7668V5.62256ZM20.7594 7.67065C20.7594 6.82215 21.447 6.13458 22.2955 6.13458C23.144 6.13458 23.8316 6.82215 23.8316 7.67065V11.7668C23.8316 12.6153 23.144 13.3029 22.2955 13.3029C21.447 13.3029 20.7594 12.6153 20.7594 11.7668V7.67065ZM34.072 15.351H36.1201V17.3991H14.6152V13.3029H19.0706C19.5689 14.3626 20.5556 15.11 21.7103 15.3025C22.8651 15.495 24.0409 15.1082 24.8556 14.267C25.6067 15.0401 26.6665 15.4333 27.7399 15.3363C28.8133 15.2399 29.7861 14.6639 30.3868 13.7691C31.3473 14.7776 32.6791 15.3496 34.072 15.351ZM34.072 8.18267H30.9999V3.57447C30.9999 2.72598 31.6874 2.03841 32.5359 2.03841C33.3844 2.03841 34.072 2.72598 34.072 3.57447V8.18267ZM39.1922 8.28599C38.8553 8.21741 38.512 8.18267 38.1682 8.18267H36.1201V5.62256C36.1201 4.77407 36.8077 4.08649 37.6562 4.08649C38.5046 4.08649 39.1922 4.77407 39.1922 5.62256V8.28599ZM47.3846 17.399H43.2884V13.3029H47.3846V17.399ZM54.5529 26.6154C54.552 27.1585 54.3362 27.6788 53.9522 28.0628C53.5681 28.4468 53.0479 28.6626 52.5048 28.6635H51.4808C50.9377 28.6626 50.4174 28.4468 50.0334 28.0628C49.6494 27.6788 49.4336 27.1585 49.4327 26.6154V4.08647C49.4332 3.54337 49.6494 3.02312 50.0334 2.63912C50.4174 2.25512 50.9377 2.03887 51.4808 2.03841H52.5048C53.0479 2.03887 53.5682 2.25511 53.9522 2.63912C54.3362 3.02313 54.5524 3.54339 54.5529 4.08647V26.6154ZM59.6731 22.5193C59.6722 23.0624 59.4564 23.5826 59.0724 23.9666C58.6884 24.3506 58.1681 24.5664 57.625 24.5673H56.601V6.13454H57.625C58.1681 6.13499 58.6884 6.35124 59.0724 6.73525C59.4564 7.11926 59.6726 7.63952 59.6731 8.1826V22.5193Z" fill="white" fill-opacity="0.85"/>
</svg>
