<svg width="62" height="61" viewBox="0 0 62 61" fill="none" xmlns="http://www.w3.org/2000/svg">
<g clip-path="url(#clip0_153_1558)">
<path d="M30.6309 26.6109C27.3602 26.6109 24.3329 27.6529 21.8454 29.4087C21.7229 29.0712 21.6404 28.7189 21.6404 28.3591C21.6404 27.1104 22.3812 25.9855 23.5301 25.4937L23.9814 25.2997C26.0314 24.4202 27.6496 22.7391 28.4666 20.6876C29.247 21.2497 29.7317 22.1613 29.7317 23.1602V24.8127H31.5299V23.1602C31.5299 21.0725 30.1992 19.2261 28.2179 18.5661L27.2972 18.2586L27.0615 19.2005C26.5662 21.1802 25.1502 22.8435 23.2719 23.6479L22.8206 23.842C21.0118 24.6173 19.8421 26.3912 19.8421 28.359C19.8421 29.1195 20.022 29.8795 20.361 30.5563L20.3779 30.5913C17.2968 33.3903 15.3467 37.4136 15.3467 41.8945C15.3467 50.322 22.2028 57.1786 30.6308 57.1786C39.0583 57.1786 45.9149 50.3224 45.9149 41.8945C45.9149 33.4669 39.0583 26.6104 30.6308 26.6104L30.6309 26.6109ZM30.6309 55.3801C23.1946 55.3801 17.1447 49.3305 17.1447 41.8939C17.1447 34.4574 23.1943 28.4077 30.6309 28.4077C38.0674 28.4077 44.1171 34.4574 44.1171 41.8939C44.1171 49.3305 38.0674 55.3801 30.6309 55.3801Z" fill="white"/>
<path d="M29.7314 51.7843H31.5296V53.5825H29.7314V51.7843Z" fill="white"/>
<path d="M35.7161 48.2545L36.9876 46.983L35.6631 45.6586C36.2798 44.8361 36.6981 43.8596 36.8517 42.7959L38.7218 42.7963V40.9981H36.8517C36.6989 39.9344 36.2798 38.958 35.6631 38.1355L36.9876 36.811L35.7161 35.5395L34.3916 36.864C33.5691 36.2473 32.5926 35.829 31.529 35.6754V33.8053H29.7308V35.6754C28.6671 35.8282 27.6907 36.2473 26.8681 36.864L25.5436 35.5395L24.2722 36.811L25.5966 38.1355C24.98 38.9579 24.5616 39.9344 24.4081 40.9981H22.5388V42.7963H24.4089C24.5617 43.8599 24.9808 44.8364 25.5974 45.6589L24.273 46.9834L25.5445 48.2549L26.8689 46.9304C27.6914 47.5471 28.6679 47.9654 29.7316 48.119V49.9891H31.5298V48.119C32.5934 47.9662 33.5699 47.5471 34.3924 46.9304L35.7161 48.2545ZM30.6303 46.3927C28.1515 46.3927 26.1349 44.3761 26.1349 41.8973C26.1349 39.4184 28.1515 37.4018 30.6303 37.4018C33.1092 37.4018 35.1258 39.4184 35.1258 41.8973C35.1258 44.3761 33.1092 46.3927 30.6303 46.3927Z" fill="white"/>
<path d="M36.9851 49.5276L38.2566 48.2561L39.5281 49.5276L38.2566 50.7991L36.9851 49.5276Z" fill="white"/>
<path d="M40.5208 40.9946H42.3189V42.7928H40.5208V40.9946Z" fill="white"/>
<path d="M36.988 34.268L38.2595 32.9965L39.531 34.268L38.2595 35.5395L36.988 34.268Z" fill="white"/>
<path d="M29.7314 30.2087H31.5296V32.0069H29.7314V30.2087Z" fill="white"/>
<path d="M21.731 34.2661L23.0025 32.9946L24.2739 34.2661L23.0025 35.5376L21.731 34.2661Z" fill="white"/>
<path d="M18.9438 40.9965H20.742V42.7947H18.9438V40.9965Z" fill="white"/>
<path d="M21.73 49.5237L23.0015 48.2522L24.273 49.5237L23.0015 50.7952L21.73 49.5237Z" fill="white"/>
<path d="M56.2268 35.5079L55.9506 35.0943C54.0916 32.3071 53.1088 29.0615 53.1088 25.7111V24.4632L51.9257 24.8579C49.9587 25.5135 48.3647 26.8962 47.4377 28.7501L46.911 29.8039L48.5194 30.6087L49.0462 29.5549C49.5701 28.5065 50.3723 27.6549 51.3605 27.0771C51.5942 30.2969 52.6524 33.3896 54.4548 36.0919L54.7309 36.5056C56.0217 38.4443 56.7051 40.6989 56.7051 43.0277C56.7051 47.8963 53.6582 52.3384 49.1243 54.0826L45.5928 55.44L46.2393 57.1184L49.77 55.7609C54.9933 53.7506 58.5033 48.6338 58.5033 43.0278C58.5033 40.3432 57.7157 37.7441 56.2266 35.508L56.2268 35.5079Z" fill="white"/>
<path d="M52.8391 36.9081C52.4723 36.3445 52.1333 35.7655 51.8313 35.1845L50.2373 36.0153C50.5653 36.6465 50.9341 37.2757 51.3316 37.8881L52.8391 36.9081Z" fill="white"/>
<path d="M51.3844 50.6678C53.6229 48.7474 54.9069 45.9692 54.9069 43.0474C54.9069 41.5729 54.5915 40.149 53.9701 38.8163L52.34 39.5767C52.8506 40.6702 53.1087 41.8372 53.1087 43.0474C53.1087 45.4442 52.0533 47.7243 50.2126 49.3029L51.3844 50.6678Z" fill="white"/>
<path d="M4.5583 43.0297C4.5583 40.7013 5.24175 38.4463 6.53246 36.5079L6.80859 36.0943C8.61232 33.3907 9.67044 30.2991 9.90292 27.0795C10.892 27.6577 11.6929 28.5089 12.2173 29.5572L12.744 30.611L14.3524 29.8062L13.8257 28.7524C12.8987 26.8977 11.3048 25.5158 9.33771 24.8603L8.1546 24.4651V25.713C8.1546 29.0647 7.17185 32.3095 5.31276 35.0974L5.03664 35.5111C3.54754 37.746 2.76001 40.345 2.76001 43.0297C2.76001 48.6364 6.26992 53.7537 11.4944 55.7628L15.024 57.1202L15.6705 55.4419L12.1398 54.0844C7.60504 52.34 4.55827 47.8977 4.55827 43.0296L4.5583 43.0297Z" fill="white"/>
<path d="M11.0264 36.0173L9.43241 35.1865C9.13035 35.7674 8.79138 36.3464 8.42456 36.9101L9.93326 37.8901C10.3296 37.2778 10.6984 36.6485 11.0264 36.0173V36.0173Z" fill="white"/>
<path d="M6.35678 43.047C6.35678 45.969 7.64084 48.7472 9.87926 50.6674L11.0505 49.3025C9.21028 47.7239 8.15487 45.4438 8.15487 43.047C8.15487 41.8369 8.41293 40.6691 8.92277 39.5767L7.2927 38.8163C6.67209 40.1482 6.35669 41.5724 6.35669 43.047L6.35678 43.047Z" fill="white"/>
<path d="M37.7769 17.2185L37.4046 16.1018L36.4254 16.7554C34.4866 18.0484 33.3286 20.2127 33.3286 22.5419V23.0129H35.1268V22.5419C35.1268 21.1833 35.6571 19.9012 36.5825 18.9503C37.3657 20.3636 38.6262 21.4594 40.1726 22.0376L42.1181 22.7638C43.3138 23.2108 44.1174 24.3688 44.1174 25.6995C44.1174 26.5518 43.7882 27.3512 43.1888 27.949L42.5828 28.555L43.8543 29.8265L44.4591 29.2216C45.3987 28.2844 45.9156 27.0338 45.9156 25.6465C45.9156 23.6228 44.6426 21.7877 42.7473 21.0803L40.8026 20.3541C39.3658 19.816 38.2624 18.6741 37.777 17.2184L37.7769 17.2185Z" fill="white"/>
<path d="M15.8813 27.75L16.6457 28.259L17.6426 26.7629L16.8782 26.2538C15.9194 25.614 15.3456 24.544 15.3456 23.3897C15.3456 22.3119 15.8597 21.2812 16.7203 20.6358L16.9407 20.4713C17.8901 19.7584 18.6454 18.8439 19.1623 17.792C19.6073 18.5599 19.8411 19.4264 19.8411 20.3192H21.6392C21.6392 18.9645 21.2429 17.6526 20.4911 16.5261L18.6713 13.7965L17.8386 16.2887C17.4725 17.3893 16.7894 18.3367 15.8645 19.0319L15.6441 19.1965C14.3314 20.1808 13.5474 21.7485 13.5474 23.3895C13.5474 25.1461 14.4205 26.7761 15.8813 27.7498L15.8813 27.75Z" fill="white"/>
<path d="M25.0672 16.3801L24.0173 16.7803L24.6584 18.4607L25.7075 18.0604C27.0391 17.5541 27.9335 16.2548 27.9335 14.8297C27.9335 13.9962 27.5953 13.1816 26.9492 12.539C26.4322 12.0229 26.1353 11.3093 26.1353 10.5385C26.1353 9.97134 26.3026 9.42188 26.6165 8.94968L26.9625 8.43356C27.5973 7.48184 27.9335 6.37343 27.9335 5.19464C27.9335 4.51316 27.8129 3.82973 27.5819 3.1871C28.5969 3.42356 29.4366 4.16984 29.7776 5.19032L31.4823 4.62117C30.8224 2.64037 28.9747 1.30914 26.8882 1.30914L24.68 1.30914L25.6977 3.34374C25.9844 3.91603 26.1352 4.55631 26.1352 5.22871C26.1352 6.01702 25.9043 6.78065 25.4671 7.43495L25.1211 7.95107C24.6089 8.71974 24.3374 9.61532 24.3374 10.58C24.3374 11.784 24.8265 12.9615 25.7365 13.8688C25.9899 14.1202 26.1352 14.4718 26.1352 14.8296C26.1352 15.5138 25.7055 16.136 25.0672 16.3799L25.0672 16.3801Z" fill="white"/>
<path d="M35.5836 3.80286C36.0915 5.06601 36.9313 6.15923 38.0307 6.98487L38.2456 7.14592C39.1089 7.79205 39.623 8.82234 39.623 9.90057C39.623 11.0549 39.0496 12.1257 38.09 12.7659L37.3256 13.275L38.3225 14.7711L39.0869 14.2621C40.5484 13.2872 41.4212 11.6571 41.4212 9.90057C41.4212 8.25995 40.6372 6.69192 39.323 5.70559L39.1081 5.54455C38.1804 4.84853 37.497 3.9003 37.1301 2.79975L36.4855 0.867615L34.769 2.1552C32.7419 3.67446 31.5317 6.09407 31.5317 8.62831H33.3299C33.3299 6.77009 34.167 4.9907 35.5837 3.80296L35.5836 3.80286Z" fill="white"/>
<path d="M45.2446 14.8897L48.8939 17.1698C49.8433 17.7637 50.4105 18.7869 50.4105 19.9072C50.4105 20.9889 49.8728 21.9921 48.9729 22.5919L48.1135 23.1653L49.1104 24.6615L49.9698 24.088C51.3716 23.1547 52.2087 21.5923 52.2087 19.9072C52.2087 18.164 51.3257 16.57 49.8469 15.6454L46.1967 13.3645C45.4579 12.9026 45.0164 12.106 45.0164 11.2333C45.0164 10.844 45.1079 10.4555 45.2816 10.1087L45.8208 9.03165L44.2124 8.22684L43.6731 9.30386C43.3758 9.89972 43.2183 10.567 43.2183 11.2333C43.2183 12.7302 43.9763 14.0974 45.2446 14.8897L45.2446 14.8897Z" fill="white"/>
<path d="M20.1956 9.3552C20.5472 9.70753 20.7416 10.1769 20.7416 10.675C20.7416 10.9625 20.6732 11.252 20.5448 11.5092L19.9372 12.7237L21.5456 13.5285L22.1532 12.3129C22.4058 11.8066 22.5398 11.2414 22.5398 10.6757C22.5398 9.69653 22.1584 8.777 21.4671 8.08449L21.1135 7.73099C20.8736 7.49061 20.7416 7.17205 20.7416 6.83229C20.7416 6.49253 20.8736 6.17437 21.1139 5.93321L22.2765 4.77061L21.005 3.49911L19.8424 4.66211C19.2627 5.24186 18.9434 6.01254 18.9434 6.83225C18.9434 7.65239 19.2627 8.42341 19.8424 9.00239L20.1956 9.3552Z" fill="white"/>
</g>
<defs>
<clipPath id="clip0_153_1558">
<rect width="61.2342" height="59.312" fill="white" transform="translate(0.382812 0.864075)"/>
</clipPath>
</defs>
</svg>
