<svg width="64" height="62" viewBox="0 0 64 62" fill="none" xmlns="http://www.w3.org/2000/svg">
<path d="M31.7688 1.83066C15.9458 1.83066 3.07178 14.714 3.07178 30.5496C3.07178 46.384 15.9458 59.2674 31.7688 59.2674C47.5917 59.2674 60.4658 46.384 60.4658 30.5496C60.4658 14.714 47.5917 1.83066 31.7688 1.83066ZM31.7688 57.4346C16.9553 57.4346 4.90329 45.3738 4.90329 30.5496C4.90329 15.7243 16.9553 3.6635 31.7688 3.6635C46.5822 3.6635 58.6343 15.7243 58.6343 30.5496C58.6343 45.3738 46.5822 57.4346 31.7688 57.4346Z" fill="white"/>
<path d="M30.853 10.8542H32.6846V15.4887H30.853V10.8542Z" fill="white"/>
<path d="M46.817 29.6339H51.4469V31.4669H46.817V29.6339Z" fill="white"/>
<path d="M30.853 45.6101H32.6846V50.2442H30.853V45.6101Z" fill="white"/>
<path d="M12.0896 29.6331H16.7195V31.4661H12.0896V29.6331Z" fill="white"/>
<path d="M20.4808 20.5474L17.2064 17.2707L18.5015 15.9747L21.7758 19.2515L20.4808 20.5474Z" fill="white"/>
<path d="M43.4033 20.9581L42.1552 19.617L45.5432 16.4583L46.7914 17.7994L43.4033 20.9581Z" fill="white"/>
<path d="M44.5118 45.5849L41.3553 42.1944L42.6955 40.9453L45.8519 44.3359L44.5118 45.5849Z" fill="white"/>
<path d="M17.991 44.643L16.7428 43.3019L20.1309 40.1432L21.379 41.4843L17.991 44.643Z" fill="white"/>
<path d="M34.9368 26.083L31.7685 29.2544L25.4702 22.9511L24.1752 24.2475L30.4732 30.5501L27.8516 33.1744L29.1466 34.47L31.7686 31.846L34.5933 34.6728L35.8884 33.3772L33.0637 30.5501L36.2324 27.3795L34.9368 26.083Z" fill="white"/>
<path d="M31.7684 6.46512C18.4975 6.46512 7.70142 17.2696 7.70142 30.5496C7.70142 43.8289 18.4976 54.634 31.7684 54.634C45.0381 54.634 55.8353 43.8295 55.8353 30.5496C55.8353 17.2691 45.0382 6.46512 31.7684 6.46512ZM31.7684 52.8012C19.5081 52.8012 9.53293 42.8187 9.53293 30.5496C9.53293 18.2793 19.5073 8.29796 31.7684 8.29796C44.0295 8.29796 54.0038 18.2795 54.0038 30.5496C54.0038 42.8187 44.0286 52.8012 31.7684 52.8012Z" fill="white"/>
</svg>
